<svg xmlns="http://www.w3.org/2000/svg" viewBox="0 8.5 480 160" width="960" height="320" fill="none" stroke-linecap="round" stroke-linejoin="round"><defs>
    <linearGradient id="usecasearc-face" x1="0" y1="0" x2="1" y2="1"><stop offset="0" stop-color="#FFFFFF"></stop><stop offset="1" stop-color="#EFEFF2"></stop></linearGradient>
    <linearGradient id="usecasearc-edge" x1="0" y1="0" x2="1" y2="1"><stop offset="0" stop-color="#09090B" stop-opacity=".12"></stop><stop offset=".5" stop-color="#09090B" stop-opacity=".16"></stop><stop offset="1" stop-color="#09090B" stop-opacity=".24"></stop></linearGradient>
    <linearGradient id="usecasearc-blueTop" x1="0" y1="0" x2="1" y2="1"><stop offset="0" stop-color="#83EAFF"></stop><stop offset=".45" stop-color="#1EBFFF"></stop><stop offset="1" stop-color="#0090FF"></stop></linearGradient>
    <linearGradient id="usecasearc-blueFace" x1="0" y1="0" x2="1" y2="1"><stop offset="0" stop-color="#0090FF" stop-opacity=".38"></stop><stop offset="1" stop-color="#0090FF" stop-opacity=".06"></stop></linearGradient>
    <linearGradient id="usecasearc-blueEdge" x1="0" y1="0" x2="1" y2="1"><stop offset="0" stop-color="#83EAFF"></stop><stop offset=".6" stop-color="#0090FF" stop-opacity=".6"></stop><stop offset="1" stop-color="#0090FF" stop-opacity=".15"></stop></linearGradient>
    <linearGradient id="usecasearc-beam" x1="0" y1="0" x2="0" y2="1"><stop offset="0" stop-color="#1EBFFF" stop-opacity="0"></stop><stop offset="1" stop-color="#1EBFFF" stop-opacity=".85"></stop></linearGradient>
    <linearGradient id="usecasearc-drop" x1="0" y1="0" x2="0" y2="1"><stop offset="0" stop-color="#09090B" stop-opacity=".2"></stop><stop offset="1" stop-color="#09090B" stop-opacity="0"></stop></linearGradient>
    <linearGradient id="usecasearc-trail" gradientUnits="userSpaceOnUse" x1="0" y1="0" x2="124" y2="0"><stop offset="0" stop-color="#0090FF" stop-opacity=".05"></stop><stop offset="1" stop-color="#1EBFFF"></stop></linearGradient>
    <radialGradient id="usecasearc-fade" cx=".5" cy=".6" r=".55"><stop offset="0" stop-color="#fff"></stop><stop offset="1" stop-color="#000"></stop></radialGradient>
    <mask id="usecasearc-mask" maskUnits="userSpaceOnUse" maskContentUnits="userSpaceOnUse" x="0" y="0" width="320" height="240"><rect width="320" height="240" fill="url(#usecasearc-fade)"></rect></mask>
    <pattern id="usecasearc-dots" patternUnits="userSpaceOnUse" width="14" height="14"><circle cx="7" cy="7" r=".9" fill="#09090B" fill-opacity=".16"></circle></pattern>
    <pattern id="usecasearc-tiles" patternUnits="userSpaceOnUse" x="-60" y="-60" width="20" height="20"><rect x="3" y="3" width="14" height="14" rx="3" fill="#FFFFFF" stroke="#09090B" stroke-opacity=".16" stroke-width=".8"></rect></pattern>
    <filter id="usecasearc-blur" filterUnits="userSpaceOnUse" x="-400" y="-400" width="1200" height="1200"><feGaussianBlur stdDeviation="7"></feGaussianBlur></filter>
    <filter id="usecasearc-blurS" filterUnits="userSpaceOnUse" x="-400" y="-400" width="1200" height="1200"><feGaussianBlur stdDeviation="2.5"></feGaussianBlur></filter>
    <pattern id="usecasearc-tiles2" patternUnits="userSpaceOnUse" x="-40" y="-40" width="20" height="20"><rect x="3" y="3" width="14" height="14" rx="3" fill="#FFFFFF" stroke="#09090B" stroke-opacity=".16" stroke-width=".8"></rect></pattern>
    <pattern id="usecasearc-tiles3" patternUnits="userSpaceOnUse" x="-90" y="-24" width="12" height="12"><rect x="2" y="2" width="8" height="8" rx="2" fill="#FFFFFF" stroke="#09090B" stroke-opacity=".18" stroke-width=".6"></rect></pattern>
    <linearGradient id="usecasearc-trailY" gradientUnits="userSpaceOnUse" x1="0" y1="-50" x2="0" y2="-136"><stop offset="0" stop-color="#0090FF" stop-opacity=".1"></stop><stop offset="1" stop-color="#0090FF"></stop></linearGradient>
    <linearGradient id="usecasearc-wFace" x1="0" y1="0" x2="1" y2="1"><stop offset="0" stop-color="#FFFFFF"></stop><stop offset="1" stop-color="#DCEEFF"></stop></linearGradient>
    <linearGradient id="usecasearc-wEdge" x1="0" y1="0" x2="1" y2="1"><stop offset="0" stop-color="#fff"></stop><stop offset="1" stop-color="#fff" stop-opacity=".5"></stop></linearGradient>
    <linearGradient id="usecasearc-dropW" x1="0" y1="0" x2="0" y2="1"><stop offset="0" stop-color="#fff" stop-opacity=".5"></stop><stop offset="1" stop-color="#fff" stop-opacity="0"></stop></linearGradient>
    <pattern id="usecasearc-dotsW" patternUnits="userSpaceOnUse" width="14" height="14"><circle cx="7" cy="7" r=".9" fill="#fff" fill-opacity=".35"></circle></pattern>
    <mask id="usecasearc-mA" maskUnits="userSpaceOnUse" maskContentUnits="userSpaceOnUse" x="0" y="0" width="440" height="220"><rect width="440" height="220" fill="url(#usecasearc-fade)"></rect></mask>
    <mask id="usecasearc-mB" maskUnits="userSpaceOnUse" maskContentUnits="userSpaceOnUse" x="0" y="0" width="480" height="160"><rect width="480" height="160" fill="url(#usecasearc-fade)"></rect></mask>
    <mask id="usecasearc-mD" maskUnits="userSpaceOnUse" maskContentUnits="userSpaceOnUse" x="0" y="0" width="300" height="310"><rect width="300" height="310" fill="url(#usecasearc-fade)"></rect></mask>
  </defs><g mask="url(#usecasearc-mB)"><rect transform="matrix(.866 .5 -.866 .5 240 108)" x="-300" y="-300" width="600" height="600" fill="url(#usecasearc-dots)"></rect></g><rect transform="matrix(.866 .5 -.866 .5 240 92)" x="-92" y="-40" width="184" height="80" rx="10" fill="url(#usecasearc-face)" stroke="url(#usecasearc-edge)" vector-effect="non-scaling-stroke"></rect><g fill="#E7E7EA"><g transform="matrix(.866 .5 -.866 .5 194.96800000000002 40)" stroke="#09090B" stroke-opacity=".1"><rect x="-9" y="-9" width="18" height="18" rx="3"></rect></g><g transform="matrix(.866 .5 -.866 .5 194.96800000000002 38)"><rect x="-9" y="-9" width="18" height="18" rx="3"></rect></g><g transform="matrix(.866 .5 -.866 .5 194.96800000000002 36)"><rect x="-9" y="-9" width="18" height="18" rx="3"></rect></g><g transform="matrix(.866 .5 -.866 .5 194.96800000000002 34)"><rect x="-9" y="-9" width="18" height="18" rx="3"></rect></g><g transform="matrix(.866 .5 -.866 .5 194.96800000000002 32)"><rect x="-9" y="-9" width="18" height="18" rx="3"></rect></g><g transform="matrix(.866 .5 -.866 .5 194.96800000000002 30)"><rect x="-9" y="-9" width="18" height="18" rx="3"></rect></g></g><rect transform="matrix(.866 .5 -.866 .5 194.96800000000002 28)" x="-9" y="-9" width="18" height="18" rx="3" fill="url(#usecasearc-face)" stroke="url(#usecasearc-edge)" vector-effect="non-scaling-stroke"></rect><g fill="#E7E7EA"><g transform="matrix(.866 .5 -.866 .5 172.452 53)" stroke="#09090B" stroke-opacity=".1"><rect x="-9" y="-9" width="18" height="18" rx="3"></rect></g><g transform="matrix(.866 .5 -.866 .5 172.452 51)"><rect x="-9" y="-9" width="18" height="18" rx="3"></rect></g><g transform="matrix(.866 .5 -.866 .5 172.452 49)"><rect x="-9" y="-9" width="18" height="18" rx="3"></rect></g><g transform="matrix(.866 .5 -.866 .5 172.452 47)"><rect x="-9" y="-9" width="18" height="18" rx="3"></rect></g><g transform="matrix(.866 .5 -.866 .5 172.452 45)"><rect x="-9" y="-9" width="18" height="18" rx="3"></rect></g><g transform="matrix(.866 .5 -.866 .5 172.452 43)"><rect x="-9" y="-9" width="18" height="18" rx="3"></rect></g></g><rect transform="matrix(.866 .5 -.866 .5 172.452 41)" x="-9" y="-9" width="18" height="18" rx="3" fill="url(#usecasearc-face)" stroke="url(#usecasearc-edge)" vector-effect="non-scaling-stroke"></rect><g fill="#E7E7EA"><g transform="matrix(.866 .5 -.866 .5 217.484 53)" stroke="#09090B" stroke-opacity=".1"><rect x="-9" y="-9" width="18" height="18" rx="3"></rect></g><g transform="matrix(.866 .5 -.866 .5 217.484 51)"><rect x="-9" y="-9" width="18" height="18" rx="3"></rect></g><g transform="matrix(.866 .5 -.866 .5 217.484 49)"><rect x="-9" y="-9" width="18" height="18" rx="3"></rect></g><g transform="matrix(.866 .5 -.866 .5 217.484 47)"><rect x="-9" y="-9" width="18" height="18" rx="3"></rect></g><g transform="matrix(.866 .5 -.866 .5 217.484 45)"><rect x="-9" y="-9" width="18" height="18" rx="3"></rect></g><g transform="matrix(.866 .5 -.866 .5 217.484 43)"><rect x="-9" y="-9" width="18" height="18" rx="3"></rect></g></g><rect transform="matrix(.866 .5 -.866 .5 217.484 41)" x="-9" y="-9" width="18" height="18" rx="3" fill="url(#usecasearc-face)" stroke="url(#usecasearc-edge)" vector-effect="non-scaling-stroke"></rect><g fill="#E7E7EA"><g transform="matrix(.866 .5 -.866 .5 149.936 66)" stroke="#09090B" stroke-opacity=".1"><rect x="-9" y="-9" width="18" height="18" rx="3"></rect></g><g transform="matrix(.866 .5 -.866 .5 149.936 64)"><rect x="-9" y="-9" width="18" height="18" rx="3"></rect></g><g transform="matrix(.866 .5 -.866 .5 149.936 62)"><rect x="-9" y="-9" width="18" height="18" rx="3"></rect></g><g transform="matrix(.866 .5 -.866 .5 149.936 60)"><rect x="-9" y="-9" width="18" height="18" rx="3"></rect></g><g transform="matrix(.866 .5 -.866 .5 149.936 58)"><rect x="-9" y="-9" width="18" height="18" rx="3"></rect></g><g transform="matrix(.866 .5 -.866 .5 149.936 56)"><rect x="-9" y="-9" width="18" height="18" rx="3"></rect></g></g><rect transform="matrix(.866 .5 -.866 .5 149.936 54)" x="-9" y="-9" width="18" height="18" rx="3" fill="url(#usecasearc-face)" stroke="url(#usecasearc-edge)" vector-effect="non-scaling-stroke"></rect><g fill="#E7E7EA"><g transform="matrix(.866 .5 -.866 .5 194.96800000000002 66)" stroke="#09090B" stroke-opacity=".1"><rect x="-9" y="-9" width="18" height="18" rx="3"></rect></g><g transform="matrix(.866 .5 -.866 .5 194.96800000000002 64)"><rect x="-9" y="-9" width="18" height="18" rx="3"></rect></g><g transform="matrix(.866 .5 -.866 .5 194.96800000000002 62)"><rect x="-9" y="-9" width="18" height="18" rx="3"></rect></g><g transform="matrix(.866 .5 -.866 .5 194.96800000000002 60)"><rect x="-9" y="-9" width="18" height="18" rx="3"></rect></g><g transform="matrix(.866 .5 -.866 .5 194.96800000000002 58)"><rect x="-9" y="-9" width="18" height="18" rx="3"></rect></g><g transform="matrix(.866 .5 -.866 .5 194.96800000000002 56)"><rect x="-9" y="-9" width="18" height="18" rx="3"></rect></g></g><rect transform="matrix(.866 .5 -.866 .5 194.96800000000002 54)" x="-9" y="-9" width="18" height="18" rx="3" fill="url(#usecasearc-face)" stroke="url(#usecasearc-edge)" vector-effect="non-scaling-stroke"></rect><g fill="#E7E7EA"><g transform="matrix(.866 .5 -.866 .5 240 66)" stroke="#09090B" stroke-opacity=".1"><rect x="-9" y="-9" width="18" height="18" rx="3"></rect></g><g transform="matrix(.866 .5 -.866 .5 240 64)"><rect x="-9" y="-9" width="18" height="18" rx="3"></rect></g><g transform="matrix(.866 .5 -.866 .5 240 62)"><rect x="-9" y="-9" width="18" height="18" rx="3"></rect></g><g transform="matrix(.866 .5 -.866 .5 240 60)"><rect x="-9" y="-9" width="18" height="18" rx="3"></rect></g><g transform="matrix(.866 .5 -.866 .5 240 58)"><rect x="-9" y="-9" width="18" height="18" rx="3"></rect></g><g transform="matrix(.866 .5 -.866 .5 240 56)"><rect x="-9" y="-9" width="18" height="18" rx="3"></rect></g></g><rect transform="matrix(.866 .5 -.866 .5 240 54)" x="-9" y="-9" width="18" height="18" rx="3" fill="url(#usecasearc-face)" stroke="url(#usecasearc-edge)" vector-effect="non-scaling-stroke"></rect><g fill="#E7E7EA"><g transform="matrix(.866 .5 -.866 .5 172.452 79)" stroke="#09090B" stroke-opacity=".1"><rect x="-9" y="-9" width="18" height="18" rx="3"></rect></g><g transform="matrix(.866 .5 -.866 .5 172.452 77)"><rect x="-9" y="-9" width="18" height="18" rx="3"></rect></g><g transform="matrix(.866 .5 -.866 .5 172.452 75)"><rect x="-9" y="-9" width="18" height="18" rx="3"></rect></g><g transform="matrix(.866 .5 -.866 .5 172.452 73)"><rect x="-9" y="-9" width="18" height="18" rx="3"></rect></g><g transform="matrix(.866 .5 -.866 .5 172.452 71)"><rect x="-9" y="-9" width="18" height="18" rx="3"></rect></g><g transform="matrix(.866 .5 -.866 .5 172.452 69)"><rect x="-9" y="-9" width="18" height="18" rx="3"></rect></g></g><rect transform="matrix(.866 .5 -.866 .5 172.452 67)" x="-9" y="-9" width="18" height="18" rx="3" fill="url(#usecasearc-face)" stroke="url(#usecasearc-edge)" vector-effect="non-scaling-stroke"></rect><g fill="#E7E7EA"><g transform="matrix(.866 .5 -.866 .5 217.484 79)" stroke="#09090B" stroke-opacity=".1"><rect x="-9" y="-9" width="18" height="18" rx="3"></rect></g><g transform="matrix(.866 .5 -.866 .5 217.484 77)"><rect x="-9" y="-9" width="18" height="18" rx="3"></rect></g><g transform="matrix(.866 .5 -.866 .5 217.484 75)"><rect x="-9" y="-9" width="18" height="18" rx="3"></rect></g><g transform="matrix(.866 .5 -.866 .5 217.484 73)"><rect x="-9" y="-9" width="18" height="18" rx="3"></rect></g><g transform="matrix(.866 .5 -.866 .5 217.484 71)"><rect x="-9" y="-9" width="18" height="18" rx="3"></rect></g><g transform="matrix(.866 .5 -.866 .5 217.484 69)"><rect x="-9" y="-9" width="18" height="18" rx="3"></rect></g></g><rect transform="matrix(.866 .5 -.866 .5 217.484 67)" x="-9" y="-9" width="18" height="18" rx="3" fill="url(#usecasearc-face)" stroke="url(#usecasearc-edge)" vector-effect="non-scaling-stroke"></rect><g fill="#E7E7EA"><g transform="matrix(.866 .5 -.866 .5 262.516 79)" stroke="#09090B" stroke-opacity=".1"><rect x="-9" y="-9" width="18" height="18" rx="3"></rect></g><g transform="matrix(.866 .5 -.866 .5 262.516 77)"><rect x="-9" y="-9" width="18" height="18" rx="3"></rect></g><g transform="matrix(.866 .5 -.866 .5 262.516 75)"><rect x="-9" y="-9" width="18" height="18" rx="3"></rect></g><g transform="matrix(.866 .5 -.866 .5 262.516 73)"><rect x="-9" y="-9" width="18" height="18" rx="3"></rect></g><g transform="matrix(.866 .5 -.866 .5 262.516 71)"><rect x="-9" y="-9" width="18" height="18" rx="3"></rect></g><g transform="matrix(.866 .5 -.866 .5 262.516 69)"><rect x="-9" y="-9" width="18" height="18" rx="3"></rect></g></g><rect transform="matrix(.866 .5 -.866 .5 262.516 67)" x="-9" y="-9" width="18" height="18" rx="3" fill="url(#usecasearc-face)" stroke="url(#usecasearc-edge)" vector-effect="non-scaling-stroke"></rect><g fill="#E7E7EA"><g transform="matrix(.866 .5 -.866 .5 194.96800000000002 92)" stroke="#09090B" stroke-opacity=".1"><rect x="-9" y="-9" width="18" height="18" rx="3"></rect></g><g transform="matrix(.866 .5 -.866 .5 194.96800000000002 90)"><rect x="-9" y="-9" width="18" height="18" rx="3"></rect></g><g transform="matrix(.866 .5 -.866 .5 194.96800000000002 88)"><rect x="-9" y="-9" width="18" height="18" rx="3"></rect></g><g transform="matrix(.866 .5 -.866 .5 194.96800000000002 86)"><rect x="-9" y="-9" width="18" height="18" rx="3"></rect></g><g transform="matrix(.866 .5 -.866 .5 194.96800000000002 84)"><rect x="-9" y="-9" width="18" height="18" rx="3"></rect></g><g transform="matrix(.866 .5 -.866 .5 194.96800000000002 82)"><rect x="-9" y="-9" width="18" height="18" rx="3"></rect></g></g><rect transform="matrix(.866 .5 -.866 .5 194.96800000000002 80)" x="-9" y="-9" width="18" height="18" rx="3" fill="url(#usecasearc-face)" stroke="url(#usecasearc-edge)" vector-effect="non-scaling-stroke"></rect><g fill="#E7E7EA"><g transform="matrix(.866 .5 -.866 .5 240 92)" stroke="#09090B" stroke-opacity=".1"><rect x="-9" y="-9" width="18" height="18" rx="3"></rect></g><g transform="matrix(.866 .5 -.866 .5 240 90)"><rect x="-9" y="-9" width="18" height="18" rx="3"></rect></g><g transform="matrix(.866 .5 -.866 .5 240 88)"><rect x="-9" y="-9" width="18" height="18" rx="3"></rect></g><g transform="matrix(.866 .5 -.866 .5 240 86)"><rect x="-9" y="-9" width="18" height="18" rx="3"></rect></g><g transform="matrix(.866 .5 -.866 .5 240 84)"><rect x="-9" y="-9" width="18" height="18" rx="3"></rect></g><g transform="matrix(.866 .5 -.866 .5 240 82)"><rect x="-9" y="-9" width="18" height="18" rx="3"></rect></g></g><rect transform="matrix(.866 .5 -.866 .5 240 80)" x="-9" y="-9" width="18" height="18" rx="3" fill="url(#usecasearc-face)" stroke="url(#usecasearc-edge)" vector-effect="non-scaling-stroke"></rect><g transform="matrix(.866 .5 -.866 .5 285.032 92)"><rect x="-9" y="-9" width="18" height="18" rx="3" fill="#EAF4FF" stroke="#0090FF" stroke-dasharray="2 2.5" vector-effect="non-scaling-stroke"></rect><circle r="12" fill="#0090FF" opacity=".45" filter="url(#usecasearc-blur)"></circle></g><g fill="#E7E7EA"><g transform="matrix(.866 .5 -.866 .5 217.484 105)" stroke="#09090B" stroke-opacity=".1"><rect x="-9" y="-9" width="18" height="18" rx="3"></rect></g><g transform="matrix(.866 .5 -.866 .5 217.484 103)"><rect x="-9" y="-9" width="18" height="18" rx="3"></rect></g><g transform="matrix(.866 .5 -.866 .5 217.484 101)"><rect x="-9" y="-9" width="18" height="18" rx="3"></rect></g><g transform="matrix(.866 .5 -.866 .5 217.484 99)"><rect x="-9" y="-9" width="18" height="18" rx="3"></rect></g><g transform="matrix(.866 .5 -.866 .5 217.484 97)"><rect x="-9" y="-9" width="18" height="18" rx="3"></rect></g><g transform="matrix(.866 .5 -.866 .5 217.484 95)"><rect x="-9" y="-9" width="18" height="18" rx="3"></rect></g></g><rect transform="matrix(.866 .5 -.866 .5 217.484 93)" x="-9" y="-9" width="18" height="18" rx="3" fill="url(#usecasearc-face)" stroke="url(#usecasearc-edge)" vector-effect="non-scaling-stroke"></rect><g fill="#E7E7EA"><g transform="matrix(.866 .5 -.866 .5 262.516 105)" stroke="#09090B" stroke-opacity=".1"><rect x="-9" y="-9" width="18" height="18" rx="3"></rect></g><g transform="matrix(.866 .5 -.866 .5 262.516 103)"><rect x="-9" y="-9" width="18" height="18" rx="3"></rect></g><g transform="matrix(.866 .5 -.866 .5 262.516 101)"><rect x="-9" y="-9" width="18" height="18" rx="3"></rect></g><g transform="matrix(.866 .5 -.866 .5 262.516 99)"><rect x="-9" y="-9" width="18" height="18" rx="3"></rect></g><g transform="matrix(.866 .5 -.866 .5 262.516 97)"><rect x="-9" y="-9" width="18" height="18" rx="3"></rect></g><g transform="matrix(.866 .5 -.866 .5 262.516 95)"><rect x="-9" y="-9" width="18" height="18" rx="3"></rect></g></g><rect transform="matrix(.866 .5 -.866 .5 262.516 93)" x="-9" y="-9" width="18" height="18" rx="3" fill="url(#usecasearc-face)" stroke="url(#usecasearc-edge)" vector-effect="non-scaling-stroke"></rect><g fill="#E7E7EA"><g transform="matrix(.866 .5 -.866 .5 307.548 105)" stroke="#09090B" stroke-opacity=".1"><rect x="-9" y="-9" width="18" height="18" rx="3"></rect></g><g transform="matrix(.866 .5 -.866 .5 307.548 103)"><rect x="-9" y="-9" width="18" height="18" rx="3"></rect></g><g transform="matrix(.866 .5 -.866 .5 307.548 101)"><rect x="-9" y="-9" width="18" height="18" rx="3"></rect></g><g transform="matrix(.866 .5 -.866 .5 307.548 99)"><rect x="-9" y="-9" width="18" height="18" rx="3"></rect></g><g transform="matrix(.866 .5 -.866 .5 307.548 97)"><rect x="-9" y="-9" width="18" height="18" rx="3"></rect></g><g transform="matrix(.866 .5 -.866 .5 307.548 95)"><rect x="-9" y="-9" width="18" height="18" rx="3"></rect></g></g><rect transform="matrix(.866 .5 -.866 .5 307.548 93)" x="-9" y="-9" width="18" height="18" rx="3" fill="url(#usecasearc-face)" stroke="url(#usecasearc-edge)" vector-effect="non-scaling-stroke"></rect><g fill="#E7E7EA"><g transform="matrix(.866 .5 -.866 .5 240 118)" stroke="#09090B" stroke-opacity=".1"><rect x="-9" y="-9" width="18" height="18" rx="3"></rect></g><g transform="matrix(.866 .5 -.866 .5 240 116)"><rect x="-9" y="-9" width="18" height="18" rx="3"></rect></g><g transform="matrix(.866 .5 -.866 .5 240 114)"><rect x="-9" y="-9" width="18" height="18" rx="3"></rect></g><g transform="matrix(.866 .5 -.866 .5 240 112)"><rect x="-9" y="-9" width="18" height="18" rx="3"></rect></g><g transform="matrix(.866 .5 -.866 .5 240 110)"><rect x="-9" y="-9" width="18" height="18" rx="3"></rect></g><g transform="matrix(.866 .5 -.866 .5 240 108)"><rect x="-9" y="-9" width="18" height="18" rx="3"></rect></g></g><rect transform="matrix(.866 .5 -.866 .5 240 106)" x="-9" y="-9" width="18" height="18" rx="3" fill="url(#usecasearc-face)" stroke="url(#usecasearc-edge)" vector-effect="non-scaling-stroke"></rect><g fill="#E7E7EA"><g transform="matrix(.866 .5 -.866 .5 285.032 118)" stroke="#09090B" stroke-opacity=".1"><rect x="-9" y="-9" width="18" height="18" rx="3"></rect></g><g transform="matrix(.866 .5 -.866 .5 285.032 116)"><rect x="-9" y="-9" width="18" height="18" rx="3"></rect></g><g transform="matrix(.866 .5 -.866 .5 285.032 114)"><rect x="-9" y="-9" width="18" height="18" rx="3"></rect></g><g transform="matrix(.866 .5 -.866 .5 285.032 112)"><rect x="-9" y="-9" width="18" height="18" rx="3"></rect></g><g transform="matrix(.866 .5 -.866 .5 285.032 110)"><rect x="-9" y="-9" width="18" height="18" rx="3"></rect></g><g transform="matrix(.866 .5 -.866 .5 285.032 108)"><rect x="-9" y="-9" width="18" height="18" rx="3"></rect></g></g><rect transform="matrix(.866 .5 -.866 .5 285.032 106)" x="-9" y="-9" width="18" height="18" rx="3" fill="url(#usecasearc-face)" stroke="url(#usecasearc-edge)" vector-effect="non-scaling-stroke"></rect><g fill="#E7E7EA"><g transform="matrix(.866 .5 -.866 .5 330.06399999999996 118)" stroke="#09090B" stroke-opacity=".1"><rect x="-9" y="-9" width="18" height="18" rx="3"></rect></g><g transform="matrix(.866 .5 -.866 .5 330.06399999999996 116)"><rect x="-9" y="-9" width="18" height="18" rx="3"></rect></g><g transform="matrix(.866 .5 -.866 .5 330.06399999999996 114)"><rect x="-9" y="-9" width="18" height="18" rx="3"></rect></g><g transform="matrix(.866 .5 -.866 .5 330.06399999999996 112)"><rect x="-9" y="-9" width="18" height="18" rx="3"></rect></g><g transform="matrix(.866 .5 -.866 .5 330.06399999999996 110)"><rect x="-9" y="-9" width="18" height="18" rx="3"></rect></g><g transform="matrix(.866 .5 -.866 .5 330.06399999999996 108)"><rect x="-9" y="-9" width="18" height="18" rx="3"></rect></g></g><rect transform="matrix(.866 .5 -.866 .5 330.06399999999996 106)" x="-9" y="-9" width="18" height="18" rx="3" fill="url(#usecasearc-face)" stroke="url(#usecasearc-edge)" vector-effect="non-scaling-stroke"></rect><g fill="#E7E7EA"><g transform="matrix(.866 .5 -.866 .5 262.516 131)" stroke="#09090B" stroke-opacity=".1"><rect x="-9" y="-9" width="18" height="18" rx="3"></rect></g><g transform="matrix(.866 .5 -.866 .5 262.516 129)"><rect x="-9" y="-9" width="18" height="18" rx="3"></rect></g><g transform="matrix(.866 .5 -.866 .5 262.516 127)"><rect x="-9" y="-9" width="18" height="18" rx="3"></rect></g><g transform="matrix(.866 .5 -.866 .5 262.516 125)"><rect x="-9" y="-9" width="18" height="18" rx="3"></rect></g><g transform="matrix(.866 .5 -.866 .5 262.516 123)"><rect x="-9" y="-9" width="18" height="18" rx="3"></rect></g><g transform="matrix(.866 .5 -.866 .5 262.516 121)"><rect x="-9" y="-9" width="18" height="18" rx="3"></rect></g></g><rect transform="matrix(.866 .5 -.866 .5 262.516 119)" x="-9" y="-9" width="18" height="18" rx="3" fill="url(#usecasearc-face)" stroke="url(#usecasearc-edge)" vector-effect="non-scaling-stroke"></rect><g fill="#E7E7EA"><g transform="matrix(.866 .5 -.866 .5 307.548 131)" stroke="#09090B" stroke-opacity=".1"><rect x="-9" y="-9" width="18" height="18" rx="3"></rect></g><g transform="matrix(.866 .5 -.866 .5 307.548 129)"><rect x="-9" y="-9" width="18" height="18" rx="3"></rect></g><g transform="matrix(.866 .5 -.866 .5 307.548 127)"><rect x="-9" y="-9" width="18" height="18" rx="3"></rect></g><g transform="matrix(.866 .5 -.866 .5 307.548 125)"><rect x="-9" y="-9" width="18" height="18" rx="3"></rect></g><g transform="matrix(.866 .5 -.866 .5 307.548 123)"><rect x="-9" y="-9" width="18" height="18" rx="3"></rect></g><g transform="matrix(.866 .5 -.866 .5 307.548 121)"><rect x="-9" y="-9" width="18" height="18" rx="3"></rect></g></g><rect transform="matrix(.866 .5 -.866 .5 307.548 119)" x="-9" y="-9" width="18" height="18" rx="3" fill="url(#usecasearc-face)" stroke="url(#usecasearc-edge)" vector-effect="non-scaling-stroke"></rect><g fill="#E7E7EA"><g transform="matrix(.866 .5 -.866 .5 285.032 144)" stroke="#09090B" stroke-opacity=".1"><rect x="-9" y="-9" width="18" height="18" rx="3"></rect></g><g transform="matrix(.866 .5 -.866 .5 285.032 142)"><rect x="-9" y="-9" width="18" height="18" rx="3"></rect></g><g transform="matrix(.866 .5 -.866 .5 285.032 140)"><rect x="-9" y="-9" width="18" height="18" rx="3"></rect></g><g transform="matrix(.866 .5 -.866 .5 285.032 138)"><rect x="-9" y="-9" width="18" height="18" rx="3"></rect></g><g transform="matrix(.866 .5 -.866 .5 285.032 136)"><rect x="-9" y="-9" width="18" height="18" rx="3"></rect></g><g transform="matrix(.866 .5 -.866 .5 285.032 134)"><rect x="-9" y="-9" width="18" height="18" rx="3"></rect></g></g><rect transform="matrix(.866 .5 -.866 .5 285.032 132)" x="-9" y="-9" width="18" height="18" rx="3" fill="url(#usecasearc-face)" stroke="url(#usecasearc-edge)" vector-effect="non-scaling-stroke"></rect><rect x="284.0" y="42" width="2" height="50" fill="url(#usecasearc-beam)" opacity=".8"></rect><rect x="276.0" y="42" width="18" height="50" fill="url(#usecasearc-beam)" opacity=".18" filter="url(#usecasearc-blurS)"></rect><g fill="#0A78E6"><g transform="matrix(.866 .5 -.866 .5 285.032 52)"><rect x="-9" y="-9" width="18" height="18" rx="3"></rect></g><g transform="matrix(.866 .5 -.866 .5 285.032 50)"><rect x="-9" y="-9" width="18" height="18" rx="3"></rect></g><g transform="matrix(.866 .5 -.866 .5 285.032 48)"><rect x="-9" y="-9" width="18" height="18" rx="3"></rect></g><g transform="matrix(.866 .5 -.866 .5 285.032 46)"><rect x="-9" y="-9" width="18" height="18" rx="3"></rect></g><g transform="matrix(.866 .5 -.866 .5 285.032 44)"><rect x="-9" y="-9" width="18" height="18" rx="3"></rect></g><g transform="matrix(.866 .5 -.866 .5 285.032 42)"><rect x="-9" y="-9" width="18" height="18" rx="3"></rect></g></g><rect transform="matrix(.866 .5 -.866 .5 285.032 40)" x="-9" y="-9" width="18" height="18" rx="3" fill="url(#usecasearc-blueTop)" stroke="#fff" stroke-opacity=".6" vector-effect="non-scaling-stroke"></rect></svg>